<?xml version="1.0" encoding="utf-8"?>
<!-- Generator: Adobe Illustrator 21.1.0, SVG Export Plug-In . SVG Version: 6.00 Build 0)  -->
<svg version="1.1" id="Layer_1" xmlns="http://www.w3.org/2000/svg" xmlns:xlink="http://www.w3.org/1999/xlink" x="0px" y="0px"
	 viewBox="0 0 1000 165.4" style="enable-background:new 0 0 1000 165.4;" xml:space="preserve">
<style type="text/css">
	.st0{fill:#007FB0;}
</style>
<g>
	<g>
		<g>
			<g>
				<path d="M58.5,95.8l-27.3-48l-19,22.8v25.2H2.5V5.6h9.6v51.7l42-51.7h11.7L37.5,40.3l32.4,55.4L58.5,95.8z"/>
				<path d="M113.7,95.8v-6c-2.4,2.4-5,4.1-7.7,5.1c-2.7,1-6.1,1.5-10.2,1.5c-4.4,0-7.9-0.4-10.6-1.3c-2.7-0.8-5.3-2.6-7.8-5.2
					c-2.6-2.7-3.9-6.6-3.9-11.9c0-5.6,1.8-9.9,5.5-13.2c3.7-3.2,9-4.8,16-4.8h18.7v-6c0-4.6-1.2-8-3.7-10.3
					c-2.5-2.2-6.5-3.4-12.1-3.4c-4.1,0-7.2,0.5-9.4,1.5c-2.2,1-4.2,2.9-6.1,5.6l-6.5-5.7c2.7-3.5,5.7-6,9.1-7.3c3.3-1.3,7.6-2,13-2
					c16.6,0,24.9,6.9,24.9,20.8v42.3H113.7z M113.7,67H96.2c-9.3,0-13.9,3.7-13.9,11c0,7.1,4.8,10.6,14.3,10.6c3.2,0,5.9-0.2,8-0.7
					c2.1-0.5,4.1-1.7,6.1-3.6c2-1.9,3-5.4,3-10.5V67z"/>
				<path d="M152.9,95.8c-5.2,0-9.2-1.5-11.8-4.5c-2.7-3-4-7-4-12.1V5.6h9.1v73.2c0,3.1,0.6,5.4,1.8,6.9c1.2,1.5,3.4,2.2,6.5,2.2
					h4.9v7.8H152.9z"/>
				<path d="M202.5,95.8v-6c-2.4,2.4-5,4.1-7.7,5.1c-2.7,1-6.1,1.5-10.2,1.5c-4.4,0-7.9-0.4-10.5-1.3c-2.7-0.8-5.3-2.6-7.8-5.2
					c-2.6-2.7-3.9-6.6-3.9-11.9c0-5.6,1.9-9.9,5.6-13.2c3.7-3.2,9-4.8,15.9-4.8h18.7v-6c0-4.6-1.2-8-3.7-10.3
					c-2.5-2.2-6.5-3.4-12.1-3.4c-4.1,0-7.2,0.5-9.4,1.5c-2.1,1-4.2,2.9-6.1,5.6l-6.4-5.7c2.7-3.5,5.7-6,9-7.3c3.3-1.3,7.7-2,13-2
					c16.6,0,24.9,6.9,24.9,20.8v42.3H202.5z M202.5,67h-17.4c-9.3,0-13.9,3.7-13.9,11c0,7.1,4.7,10.6,14.3,10.6
					c3.2,0,5.9-0.2,7.9-0.7c2.2-0.5,4.2-1.7,6.2-3.6c2-1.9,3-5.4,3-10.5V67z"/>
				<path d="M306.1,95.8V57.4c0-5.4-1.3-9.5-4.1-12.3c-2.7-2.8-6.4-4.2-11.2-4.2c-4.6,0-8.4,1.4-11.2,4.2c-2.8,2.8-4.3,6.6-4.3,11.4
					v39.4h-9.1V57.4c0-5.4-1.4-9.5-4.1-12.3c-2.7-2.8-6.4-4.2-11.2-4.2s-8.6,1.5-11.4,4.3c-2.8,2.9-4.1,7-4.1,12.3v38.4h-9.1V33.5
					h9.1v6.8c4.5-5,10.3-7.6,17.6-7.6c8.8,0,15.2,3.5,19.1,10.4c4.9-6.9,11.7-10.4,20.5-10.4c3.3,0,6.3,0.5,9,1.5
					c2.7,1,5.7,3.1,8.9,6.1c3.2,3.1,4.8,8.2,4.8,15.5v39.9H306.1z"/>
				<path d="M365,95.8v-6c-2.5,2.4-5,4.1-7.7,5.1c-2.7,1-6.1,1.5-10.2,1.5c-4.4,0-7.9-0.4-10.5-1.3c-2.7-0.8-5.3-2.6-7.9-5.2
					c-2.6-2.7-3.9-6.6-3.9-11.9c0-5.6,1.9-9.9,5.6-13.2c3.7-3.2,9-4.8,15.9-4.8H365v-6c0-4.6-1.2-8-3.7-10.3
					c-2.4-2.2-6.5-3.4-12.1-3.4c-4.1,0-7.2,0.5-9.4,1.5c-2.2,1-4.2,2.9-6.1,5.6l-6.4-5.7c2.7-3.5,5.7-6,9-7.3c3.3-1.3,7.6-2,13-2
					c16.6,0,24.9,6.9,24.9,20.8v42.3H365z M365,67h-17.5c-9.3,0-13.9,3.7-13.9,11c0,7.1,4.7,10.6,14.3,10.6c3.2,0,5.8-0.2,7.9-0.7
					c2.1-0.5,4.2-1.7,6.1-3.6c2-1.9,3-5.4,3-10.5V67z"/>
				<path d="M383.6,95.8l0-7.9l34.6-46.4h-32.7v-8.1h43.2v7.7l-34.8,46.5h34.8v8.1H383.6z"/>
				<path d="M479,89.3c-2.3,2.3-4.9,4-7.8,5.2c-2.9,1.2-6.3,1.8-10,1.8c-3.7,0-7.1-0.6-10-1.8c-2.9-1.2-5.7-3.2-8.3-5.8
					c-2.6-2.7-4.4-5.9-5.5-9.9c-1.1-3.9-1.6-8.7-1.6-14.4c0-5.5,0.5-10.2,1.6-14.2c1.1-4,2.9-7.3,5.5-10c2.6-2.7,5.4-4.6,8.3-5.8
					c2.9-1.2,6.3-1.8,10.1-1.8c3.7,0,7,0.6,10,1.8c3,1.2,5.7,3.2,8.3,5.8c2.6,2.7,4.5,6,5.5,9.9c1.1,3.9,1.6,8.7,1.6,14.4
					c0,5.5-0.5,10.2-1.6,14.2C484,82.8,482,86.3,479,89.3z M472.6,45.4c-3.1-3.1-6.8-4.6-11.4-4.6c-4.5,0-8,1.2-10.5,3.8
					c-2.6,2.5-4.1,5.5-4.8,8.8c-0.7,3.3-1,7.1-1,11.2c0,4.6,0.3,8.4,0.9,11.5c0.6,3.1,2.2,5.9,4.8,8.5c2.6,2.6,6.1,3.9,10.6,3.9
					c4.6,0,8.1-1.3,10.6-3.8c2.5-2.5,4.1-5.4,4.7-8.5c0.7-3.2,0.9-7,0.9-11.5c0-4.4-0.3-8.2-0.9-11.4
					C475.9,50,474.6,47.4,472.6,45.4z"/>
				<path d="M538.4,89.3c-2.3,2.3-4.9,4-7.8,5.2c-2.9,1.2-6.3,1.8-10,1.8c-3.7,0-7-0.6-10-1.8c-2.9-1.2-5.7-3.2-8.3-5.8
					c-2.6-2.7-4.5-5.9-5.5-9.9c-1.1-3.9-1.6-8.7-1.6-14.4c0-5.5,0.5-10.2,1.6-14.2c1-4,2.9-7.3,5.5-10c2.6-2.7,5.4-4.6,8.3-5.8
					c2.9-1.2,6.3-1.8,10.1-1.8c3.7,0,7,0.6,10,1.8c3,1.2,5.7,3.2,8.4,5.8c2.6,2.7,4.4,6,5.5,9.9c1.1,3.9,1.6,8.7,1.6,14.4
					c0,5.5-0.5,10.2-1.6,14.2C543.4,82.8,541.4,86.3,538.4,89.3z M532,45.4c-3-3.1-6.8-4.6-11.4-4.6c-4.5,0-8,1.2-10.5,3.8
					c-2.5,2.5-4.1,5.5-4.8,8.8c-0.6,3.3-1,7.1-1,11.2c0,4.6,0.3,8.4,0.9,11.5c0.7,3.1,2.2,5.9,4.8,8.5c2.6,2.6,6.1,3.9,10.6,3.9
					c4.5,0,8.1-1.3,10.6-3.8c2.5-2.5,4.1-5.4,4.7-8.5c0.6-3.2,0.9-7,0.9-11.5c0-4.4-0.3-8.2-0.9-11.4C535.3,50,534,47.4,532,45.4z"
					/>
			</g>
		</g>
		<g>
			<g>
				<path d="M436.4,139.3v-0.1c0-8.2,6.4-15.1,14.9-15.1c4.9,0,8.1,1.8,10.7,4.2c0.3,0.3,0.7,0.8,0.7,1.5c0,1.2-1,2.1-2.1,2.1
					c-0.5,0-1.1-0.2-1.4-0.5c-2.1-1.9-4.4-3.5-7.9-3.5c-5.9,0-10.4,5-10.4,11.2v0.1c0,6.3,4.6,11.3,10.7,11.3c3.3,0,5.9-1.5,8.1-3.5
					c0.3-0.3,0.7-0.6,1.2-0.6c1.1,0,1.9,1,1.9,2c0,0.5-0.2,1-0.5,1.3c-2.8,2.8-6.1,4.7-11,4.7C442.8,154.4,436.4,147.5,436.4,139.3z
					"/>
				<path d="M465.4,139.3v-0.1c0-8.2,6.4-15.1,15.1-15.1c8.7,0,15.1,6.8,15.1,15v0.1c0,8.2-6.4,15.2-15.2,15.2
					C471.7,154.4,465.4,147.5,465.4,139.3z M491.2,139.3v-0.1c0-6.2-4.6-11.3-10.8-11.3c-6.3,0-10.6,5.1-10.6,11.2v0.1
					c0,6.3,4.6,11.3,10.7,11.3C486.8,150.5,491.2,145.5,491.2,139.3z"/>
				<path d="M501.2,126.6c0-1.2,1-2.2,2.1-2.2c1.2,0,2.2,1,2.2,2.2v3c1.9-2.9,4.5-5.5,9.4-5.5c4.7,0,7.7,2.5,9.3,5.8
					c2.1-3.2,5.2-5.8,10.2-5.8c6.7,0,10.8,4.5,10.8,11.7v16c0,1.3-0.9,2.2-2.1,2.2c-1.2,0-2.2-0.9-2.2-2.2v-15
					c0-5.6-2.8-8.7-7.5-8.7c-4.4,0-8,3.2-8,9v14.8c0,1.3-0.9,2.2-2.2,2.2c-1.2,0-2.1-0.9-2.1-2.2v-15.1c0-5.5-2.8-8.6-7.5-8.6
					c-4.6,0-8.1,3.8-8.1,9.1v14.6c0,1.3-0.9,2.2-2.1,2.2c-1.2,0-2.2-0.9-2.2-2.2V126.6z"/>
				<path d="M552.3,126.6c0-1.2,1-2.2,2.2-2.2c1.2,0,2.1,1,2.1,2.2v3c1.9-2.9,4.5-5.5,9.4-5.5c4.7,0,7.8,2.5,9.3,5.8
					c2.1-3.2,5.2-5.8,10.2-5.8c6.7,0,10.8,4.5,10.8,11.7v16c0,1.3-1,2.2-2.1,2.2c-1.2,0-2.2-0.9-2.2-2.2v-15c0-5.6-2.8-8.7-7.5-8.7
					c-4.4,0-8,3.2-8,9v14.8c0,1.3-1,2.2-2.2,2.2c-1.2,0-2.1-0.9-2.1-2.2v-15.1c0-5.5-2.8-8.6-7.4-8.6c-4.6,0-8.1,3.8-8.1,9.1v14.6
					c0,1.3-0.9,2.2-2.1,2.2c-1.2,0-2.2-0.9-2.2-2.2V126.6z"/>
				<path d="M628.4,151.8c0,1.2-0.9,2.2-2.2,2.2c-1.1,0-2.1-0.9-2.1-2.2v-3.1c-2,3.1-4.9,5.7-9.9,5.7c-7,0-11.1-4.7-11.1-11.6v-16.1
					c0-1.2,0.9-2.2,2.1-2.2c1.2,0,2.2,1,2.2,2.2v15.1c0,5.4,2.9,8.7,8,8.7c5,0,8.7-3.6,8.7-9.1v-14.7c0-1.2,0.9-2.2,2.1-2.2
					c1.2,0,2.2,1,2.2,2.2V151.8z"/>
				<path d="M635.8,126.6c0-1.2,1-2.2,2.1-2.2c1.2,0,2.2,1,2.2,2.2v3.1c1.9-3.1,5-5.7,9.9-5.7c7,0,11.1,4.7,11.1,11.6v16.1
					c0,1.3-0.9,2.2-2.1,2.2c-1.2,0-2.2-0.9-2.2-2.2v-15c0-5.4-2.9-8.7-8.1-8.7c-5,0-8.7,3.7-8.7,9.1v14.7c0,1.3-0.9,2.2-2.1,2.2
					c-1.2,0-2.2-0.9-2.2-2.2V126.6z"/>
				<path d="M668.1,115.6c0-1.4,1.1-2.3,2.5-2.3c1.5,0,2.6,0.9,2.6,2.3v0.7c0,1.3-1.1,2.3-2.6,2.3c-1.4,0-2.5-0.9-2.5-2.3V115.6z
					 M668.5,126.6c0-1.2,0.9-2.2,2.1-2.2c1.3,0,2.2,1,2.2,2.2v25.2c0,1.3-0.9,2.2-2.1,2.2c-1.2,0-2.2-0.9-2.2-2.2V126.6z"/>
				<path d="M682.2,146v-17.5h-2.4c-1,0-1.9-0.9-1.9-1.9c0-1.1,0.9-1.9,1.9-1.9h2.4v-6.9c0-1.2,0.9-2.2,2.1-2.2c1.2,0,2.2,1,2.2,2.2
					v6.9h7.5c1.1,0,1.9,0.9,1.9,1.9c0,1.1-0.9,1.9-1.9,1.9h-7.5v17c0,3.5,2,4.8,4.9,4.8c1.5,0,2.3-0.4,2.6-0.4c1,0,1.8,0.8,1.8,1.9
					c0,0.8-0.5,1.4-1.2,1.7c-1.2,0.5-2.6,0.8-4.3,0.8C685.7,154.2,682.2,151.9,682.2,146z"/>
				<path d="M700.5,162c-0.7-0.3-1.4-0.8-1.4-1.9c0-1.1,0.9-1.8,1.8-1.8c0.4,0,0.8,0.1,1.1,0.2c0.8,0.3,1.7,0.5,3.1,0.5
					c2.7,0,4.3-1.6,5.9-5.2l0.2-0.5l-12.1-25.7c-0.2-0.4-0.3-0.8-0.3-1.2c0-1.2,1-2.1,2.2-2.1s1.8,0.7,2.2,1.7l10.1,22.8l9-22.9
					c0.3-0.9,0.9-1.6,2.1-1.6c1.2,0,2.1,1,2.1,2.1c0,0.3-0.1,0.7-0.3,1.1L715,154.7c-2.6,6-5.4,8.2-9.7,8.2
					C703.4,162.9,702,162.5,700.5,162z"/>
				<path d="M744.6,139.3v-0.1c0-8.2,6.3-15.1,14.8-15.1c4.8,0,8.1,1.8,10.7,4.2c0.3,0.3,0.7,0.8,0.7,1.5c0,1.2-1,2.1-2.1,2.1
					c-0.5,0-1.1-0.2-1.4-0.5c-2.1-1.9-4.5-3.5-7.9-3.5c-5.9,0-10.4,5-10.4,11.2v0.1c0,6.3,4.6,11.3,10.7,11.3c3.3,0,6-1.5,8.1-3.5
					c0.3-0.3,0.7-0.6,1.3-0.6c1.1,0,2,1,2,2c0,0.5-0.3,1-0.6,1.3c-2.8,2.8-6.1,4.7-10.9,4.7C751,154.4,744.6,147.5,744.6,139.3z"/>
				<path d="M773.6,139.3v-0.1c0-8.2,6.4-15.1,15.2-15.1c8.7,0,15.1,6.8,15.1,15v0.1c0,8.2-6.4,15.2-15.2,15.2
					S773.6,147.5,773.6,139.3z M799.4,139.3v-0.1c0-6.2-4.7-11.3-10.8-11.3c-6.3,0-10.6,5.1-10.6,11.2v0.1c0,6.3,4.6,11.3,10.7,11.3
					C795,150.5,799.4,145.5,799.4,139.3z"/>
				<path d="M809.8,114.6c0-1.2,0.9-2.2,2.1-2.2c1.2,0,2.2,1,2.2,2.2v37.1c0,1.3-0.9,2.2-2.1,2.2c-1.2,0-2.2-0.9-2.2-2.2V114.6z"/>
				<path d="M822.3,114.6c0-1.2,0.9-2.2,2.1-2.2c1.2,0,2.2,1,2.2,2.2v37.1c0,1.3-0.9,2.2-2.1,2.2c-1.2,0-2.2-0.9-2.2-2.2V114.6z"/>
				<path d="M847.1,154.4c-8,0-14.5-6.1-14.5-15.1v-0.1c0-8.4,5.9-15.1,13.9-15.1c8.6,0,13.5,7,13.5,14.7c0,1.2-0.9,2-2,2h-21
					c0.6,6.3,5,9.8,10.2,9.8c3.6,0,6.3-1.4,8.4-3.4c0.4-0.3,0.8-0.5,1.3-0.5c1.1,0,1.9,0.8,1.9,1.9c0,0.5-0.2,1-0.7,1.4
					C855.3,152.6,852.1,154.4,847.1,154.4z M855.7,137.6c-0.5-5.3-3.5-9.9-9.3-9.9c-5.1,0-8.9,4.2-9.4,9.9H855.7z"/>
				<path d="M866.1,159.4c-0.7-0.3-1.1-1-1.1-1.8c0-1,0.9-1.9,1.9-1.9c0.4,0,0.7,0.1,1,0.3c3.1,2,6.5,3.2,10.3,3.2
					c6.4,0,10.6-3.5,10.6-10.3v-3.4c-2.6,3.4-6.1,6.1-11.4,6.1c-7,0-13.7-5.2-13.7-13.6v-0.1c0-8.5,6.7-13.7,13.7-13.7
					c5.4,0,9,2.7,11.3,5.8v-3.3c0-1.2,0.9-2.2,2.1-2.2c1.2,0,2.2,1,2.2,2.2v22.1c0,4.5-1.4,7.9-3.7,10.3c-2.6,2.6-6.4,3.8-11.1,3.8
					C873.8,162.8,869.8,161.6,866.1,159.4z M888.9,137.8v-0.1c0-6-5.1-9.8-10.7-9.8c-5.5,0-10.1,3.8-10.1,9.8v0.1
					c0,5.8,4.7,9.9,10.1,9.9C883.7,147.7,888.9,143.7,888.9,137.8z"/>
				<path d="M913.1,154.4c-8,0-14.5-6.1-14.5-15.1v-0.1c0-8.4,5.9-15.1,13.9-15.1c8.6,0,13.5,7,13.5,14.7c0,1.2-1,2-2,2h-21
					c0.6,6.3,5,9.8,10.2,9.8c3.6,0,6.2-1.4,8.4-3.4c0.3-0.3,0.8-0.5,1.2-0.5c1.1,0,1.9,0.8,1.9,1.9c0,0.5-0.2,1-0.7,1.4
					C921.3,152.6,918.1,154.4,913.1,154.4z M921.7,137.6c-0.5-5.3-3.5-9.9-9.3-9.9c-5,0-8.9,4.2-9.4,9.9H921.7z"/>
			</g>
		</g>
		<path class="st0" d="M581.7,92.6h-13.2L538.8,2.5h18.2l18.1,58.7l18.1-58.7h18.3L581.7,92.6z"/>
		<path class="st0" d="M661.4,92.6l-5.3-16.1h-32l-5.5,16.1h-18.3l32.8-90.1h13.8l32.9,90.1H661.4z M640.4,29.1L629,61.8h22.4
			L640.4,29.1z"/>
		<path class="st0" d="M685.8,92.6V2.5h17.5V77h40.9v15.7H685.8z"/>
		<path class="st0" d="M753.4,92.6V2.5H771V77h40.8v15.7H753.4z"/>
		<path class="st0" d="M821.1,92.6V2.5h59.3v15.7h-41.7v21.1h35.5V55h-35.5v22h41.7v15.7H821.1z"/>
		<path class="st0" d="M926.8,55.7v37h-17.4v-37L882.4,2.5h19.1l16.8,36.3l16.6-36.3h19.1L926.8,55.7z"/>
	</g>
	<g>
		<path d="M970,4.5h-5.4v-2h13.2v2h-5.4v15.9H970V4.5z"/>
		<path d="M994.8,12.5c-0.1-2.5-0.3-5.5-0.3-7.7h-0.1c-0.6,2.1-1.3,4.3-2.2,6.8l-3.1,8.6h-1.7l-2.9-8.5c-0.8-2.5-1.5-4.8-2-6.9h-0.1
			c-0.1,2.2-0.2,5.2-0.3,7.9l-0.5,7.6h-2.2l1.2-17.8h2.9l3,8.6c0.7,2.2,1.3,4.1,1.8,6h0.1c0.5-1.8,1.1-3.8,1.9-6l3.2-8.6h2.9
			l1.1,17.8h-2.3L994.8,12.5z"/>
	</g>
</g>
</svg>
