<?xml version="1.0" encoding="UTF-8"?>
<svg xmlns="http://www.w3.org/2000/svg" xmlns:xlink="http://www.w3.org/1999/xlink" width="706pt" height="131pt" viewBox="0 0 706 131" version="1.1">
<g id="surface32025">
<path style="fill:none;stroke-width:1;stroke-linecap:butt;stroke-linejoin:miter;stroke:rgb(0%,0%,0%);stroke-opacity:1;stroke-miterlimit:10;" d="M 1262.317322 166.476807 L 1290.129822 182.5354 " transform="matrix(1,0,0,1,-682.911072,-104.703369)"/>
<path style="fill:none;stroke-width:1;stroke-linecap:butt;stroke-linejoin:miter;stroke:rgb(0%,0%,0%);stroke-opacity:1;stroke-miterlimit:10;" d="M 1262.317322 160.703369 L 1292.629822 178.203369 " transform="matrix(1,0,0,1,-682.911072,-104.703369)"/>
<path style="fill:none;stroke-width:1;stroke-linecap:butt;stroke-linejoin:miter;stroke:rgb(0%,0%,0%);stroke-opacity:1;stroke-miterlimit:10;" d="M 777.344666 166.476807 L 805.153259 182.5354 " transform="matrix(1,0,0,1,-682.911072,-104.703369)"/>
<path style="fill:none;stroke-width:1;stroke-linecap:butt;stroke-linejoin:miter;stroke:rgb(0%,0%,0%);stroke-opacity:1;stroke-miterlimit:10;" d="M 777.344666 160.703369 L 807.653259 178.203369 " transform="matrix(1,0,0,1,-682.911072,-104.703369)"/>
<path style="fill:none;stroke-width:1;stroke-linecap:butt;stroke-linejoin:miter;stroke:rgb(0%,0%,0%);stroke-opacity:1;stroke-miterlimit:10;" d="M 1201.696228 166.476807 L 1227.008728 181.090088 " transform="matrix(1,0,0,1,-682.911072,-104.703369)"/>
<path style="fill:none;stroke-width:1;stroke-linecap:butt;stroke-linejoin:miter;stroke:rgb(0%,0%,0%);stroke-opacity:1;stroke-miterlimit:10;" d="M 1201.696228 160.703369 L 1232.008728 178.203369 " transform="matrix(1,0,0,1,-682.911072,-104.703369)"/>
<path style="fill:none;stroke-width:1;stroke-linecap:butt;stroke-linejoin:miter;stroke:rgb(0%,0%,0%);stroke-opacity:1;stroke-miterlimit:10;" d="M 1327.938416 157.81665 L 1327.938416 128.590088 " transform="matrix(1,0,0,1,-682.911072,-104.703369)"/>
<path style="fill:none;stroke-width:1;stroke-linecap:butt;stroke-linejoin:miter;stroke:rgb(0%,0%,0%);stroke-opacity:1;stroke-miterlimit:10;" d="M 1322.938416 160.703369 L 1322.938416 125.703369 " transform="matrix(1,0,0,1,-682.911072,-104.703369)"/>
<path style="fill:none;stroke-width:1;stroke-linecap:butt;stroke-linejoin:miter;stroke:rgb(0%,0%,0%);stroke-opacity:1;stroke-miterlimit:10;" d="M 1141.075134 166.476807 L 1168.883728 182.5354 " transform="matrix(1,0,0,1,-682.911072,-104.703369)"/>
<path style="fill:none;stroke-width:1;stroke-linecap:butt;stroke-linejoin:miter;stroke:rgb(0%,0%,0%);stroke-opacity:1;stroke-miterlimit:10;" d="M 1141.075134 160.703369 L 1171.383728 178.203369 " transform="matrix(1,0,0,1,-682.911072,-104.703369)"/>
<path style="fill:none;stroke-width:1;stroke-linecap:butt;stroke-linejoin:miter;stroke:rgb(0%,0%,0%);stroke-opacity:1;stroke-miterlimit:10;" d="M 964.207947 157.81665 L 989.520447 172.429932 " transform="matrix(1,0,0,1,-682.911072,-104.703369)"/>
<path style="fill:none;stroke-width:1;stroke-linecap:butt;stroke-linejoin:miter;stroke:rgb(0%,0%,0%);stroke-opacity:1;stroke-miterlimit:10;" d="M 959.207947 160.703369 L 989.520447 178.203369 " transform="matrix(1,0,0,1,-682.911072,-104.703369)"/>
<path style="fill:none;stroke-width:1;stroke-linecap:butt;stroke-linejoin:miter;stroke:rgb(0%,0%,0%);stroke-opacity:1;stroke-miterlimit:10;" d="M 1080.454041 166.476807 L 1105.762634 181.090088 " transform="matrix(1,0,0,1,-682.911072,-104.703369)"/>
<path style="fill:none;stroke-width:1;stroke-linecap:butt;stroke-linejoin:miter;stroke:rgb(0%,0%,0%);stroke-opacity:1;stroke-miterlimit:10;" d="M 1080.454041 160.703369 L 1110.762634 178.203369 " transform="matrix(1,0,0,1,-682.911072,-104.703369)"/>
<path style="fill:none;stroke-width:1;stroke-linecap:butt;stroke-linejoin:miter;stroke:rgb(0%,0%,0%);stroke-opacity:1;stroke-miterlimit:10;" d="M 1019.829041 166.476807 L 1047.641541 182.5354 " transform="matrix(1,0,0,1,-682.911072,-104.703369)"/>
<path style="fill:none;stroke-width:1;stroke-linecap:butt;stroke-linejoin:miter;stroke:rgb(0%,0%,0%);stroke-opacity:1;stroke-miterlimit:10;" d="M 1019.829041 160.703369 L 1050.141541 178.203369 " transform="matrix(1,0,0,1,-682.911072,-104.703369)"/>
<path style="fill:none;stroke-width:1;stroke-linecap:butt;stroke-linejoin:miter;stroke:rgb(0%,0%,0%);stroke-opacity:1;stroke-miterlimit:10;" d="M 742.032166 181.090088 L 742.032166 210.31665 " transform="matrix(1,0,0,1,-682.911072,-104.703369)"/>
<path style="fill:none;stroke-width:1;stroke-linecap:butt;stroke-linejoin:miter;stroke:rgb(0%,0%,0%);stroke-opacity:1;stroke-miterlimit:10;" d="M 747.032166 178.203369 L 747.032166 213.203369 " transform="matrix(1,0,0,1,-682.911072,-104.703369)"/>
<path style="fill:none;stroke-width:1;stroke-linecap:butt;stroke-linejoin:miter;stroke:rgb(0%,0%,0%);stroke-opacity:1;stroke-miterlimit:10;" d="M 898.586853 166.476807 L 926.399353 182.5354 " transform="matrix(1,0,0,1,-682.911072,-104.703369)"/>
<path style="fill:none;stroke-width:1;stroke-linecap:butt;stroke-linejoin:miter;stroke:rgb(0%,0%,0%);stroke-opacity:1;stroke-miterlimit:10;" d="M 898.586853 160.703369 L 928.899353 178.203369 " transform="matrix(1,0,0,1,-682.911072,-104.703369)"/>
<path style="fill:none;stroke-width:1;stroke-linecap:butt;stroke-linejoin:miter;stroke:rgb(0%,0%,0%);stroke-opacity:1;stroke-miterlimit:10;" d="M 842.965759 157.81665 L 868.278259 172.429932 " transform="matrix(1,0,0,1,-682.911072,-104.703369)"/>
<path style="fill:none;stroke-width:1;stroke-linecap:butt;stroke-linejoin:miter;stroke:rgb(0%,0%,0%);stroke-opacity:1;stroke-miterlimit:10;" d="M 837.965759 160.703369 L 868.278259 178.203369 " transform="matrix(1,0,0,1,-682.911072,-104.703369)"/>
<path style="fill:none;stroke-width:1;stroke-linecap:butt;stroke-linejoin:miter;stroke:rgb(0%,0%,0%);stroke-opacity:1;stroke-miterlimit:10;" d="M 868.278259 178.203369 L 898.586853 160.703369 " transform="matrix(1,0,0,1,-682.911072,-104.703369)"/>
<path style="fill:none;stroke-width:1;stroke-linecap:butt;stroke-linejoin:miter;stroke:rgb(0%,0%,0%);stroke-opacity:1;stroke-miterlimit:10;" d="M 747.032166 178.203369 L 777.344666 160.703369 " transform="matrix(1,0,0,1,-682.911072,-104.703369)"/>
<path style="fill:none;stroke-width:1;stroke-linecap:butt;stroke-linejoin:miter;stroke:rgb(0%,0%,0%);stroke-opacity:1;stroke-miterlimit:10;" d="M 716.723572 230.703369 L 686.411072 213.203369 " transform="matrix(1,0,0,1,-682.911072,-104.703369)"/>
<path style="fill:none;stroke-width:1;stroke-linecap:butt;stroke-linejoin:miter;stroke:rgb(0%,0%,0%);stroke-opacity:1;stroke-miterlimit:10;" d="M 747.032166 213.203369 L 716.723572 230.703369 " transform="matrix(1,0,0,1,-682.911072,-104.703369)"/>
<path style="fill:none;stroke-width:1;stroke-linecap:butt;stroke-linejoin:miter;stroke:rgb(0%,0%,0%);stroke-opacity:1;stroke-miterlimit:10;" d="M 716.723572 160.703369 L 696.645447 132.031494 " transform="matrix(1,0,0,1,-682.911072,-104.703369)"/>
<path style="fill:none;stroke-width:1;stroke-linecap:butt;stroke-linejoin:miter;stroke:rgb(0%,0%,0%);stroke-opacity:1;stroke-miterlimit:10;" d="M 716.723572 160.703369 L 736.797791 132.031494 " transform="matrix(1,0,0,1,-682.911072,-104.703369)"/>
<path style="fill:none;stroke-width:1;stroke-linecap:butt;stroke-linejoin:miter;stroke:rgb(0%,0%,0%);stroke-opacity:1;stroke-miterlimit:10;" d="M 1353.250916 178.203369 L 1370.750916 208.515869 " transform="matrix(1,0,0,1,-682.911072,-104.703369)"/>
<path style="fill:none;stroke-width:1;stroke-linecap:butt;stroke-linejoin:miter;stroke:rgb(0%,0%,0%);stroke-opacity:1;stroke-miterlimit:10;" d="M 1353.250916 178.203369 L 1333.176697 206.875244 " transform="matrix(1,0,0,1,-682.911072,-104.703369)"/>
<path style="fill:none;stroke-width:1;stroke-linecap:butt;stroke-linejoin:miter;stroke:rgb(0%,0%,0%);stroke-opacity:1;stroke-miterlimit:10;" d="M 1353.250916 178.203369 L 1322.938416 160.703369 " transform="matrix(1,0,0,1,-682.911072,-104.703369)"/>
<path style="fill:none;stroke-width:1;stroke-linecap:butt;stroke-linejoin:miter;stroke:rgb(0%,0%,0%);stroke-opacity:1;stroke-miterlimit:10;" d="M 1383.563416 160.703369 L 1353.250916 178.203369 " transform="matrix(1,0,0,1,-682.911072,-104.703369)"/>
<path style="fill:none;stroke-width:1;stroke-linecap:butt;stroke-linejoin:miter;stroke:rgb(0%,0%,0%);stroke-opacity:1;stroke-miterlimit:10;" d="M 1383.563416 125.703369 L 1383.563416 160.703369 " transform="matrix(1,0,0,1,-682.911072,-104.703369)"/>
<path style="fill:none;stroke-width:1;stroke-linecap:butt;stroke-linejoin:miter;stroke:rgb(0%,0%,0%);stroke-opacity:1;stroke-miterlimit:10;" d="M 1353.250916 108.203369 L 1383.563416 125.703369 " transform="matrix(1,0,0,1,-682.911072,-104.703369)"/>
<path style="fill:none;stroke-width:1;stroke-linecap:butt;stroke-linejoin:miter;stroke:rgb(0%,0%,0%);stroke-opacity:1;stroke-miterlimit:10;" d="M 1322.938416 125.703369 L 1353.250916 108.203369 " transform="matrix(1,0,0,1,-682.911072,-104.703369)"/>
<path style="fill:none;stroke-width:1;stroke-linecap:butt;stroke-linejoin:miter;stroke:rgb(0%,0%,0%);stroke-opacity:1;stroke-miterlimit:10;" d="M 1292.629822 178.203369 L 1322.938416 160.703369 " transform="matrix(1,0,0,1,-682.911072,-104.703369)"/>
<path style="fill:none;stroke-width:1;stroke-linecap:butt;stroke-linejoin:miter;stroke:rgb(0%,0%,0%);stroke-opacity:1;stroke-miterlimit:10;" d="M 1232.008728 178.203369 L 1262.317322 160.703369 " transform="matrix(1,0,0,1,-682.911072,-104.703369)"/>
<path style="fill:none;stroke-width:1;stroke-linecap:butt;stroke-linejoin:miter;stroke:rgb(0%,0%,0%);stroke-opacity:1;stroke-miterlimit:10;" d="M 1322.938416 125.703369 L 1292.629822 108.203369 " transform="matrix(1,0,0,1,-682.911072,-104.703369)"/>
<path style="fill:none;stroke-width:1;stroke-linecap:butt;stroke-linejoin:miter;stroke:rgb(0%,0%,0%);stroke-opacity:1;stroke-miterlimit:10;" d="M 716.723572 160.703369 L 747.032166 178.203369 " transform="matrix(1,0,0,1,-682.911072,-104.703369)"/>
<path style="fill:none;stroke-width:1;stroke-linecap:butt;stroke-linejoin:miter;stroke:rgb(0%,0%,0%);stroke-opacity:1;stroke-miterlimit:10;" d="M 1171.383728 178.203369 L 1201.696228 160.703369 " transform="matrix(1,0,0,1,-682.911072,-104.703369)"/>
<path style="fill:none;stroke-width:1;stroke-linecap:butt;stroke-linejoin:miter;stroke:rgb(0%,0%,0%);stroke-opacity:1;stroke-miterlimit:10;" d="M 1110.762634 178.203369 L 1141.075134 160.703369 " transform="matrix(1,0,0,1,-682.911072,-104.703369)"/>
<path style="fill:none;stroke-width:1;stroke-linecap:butt;stroke-linejoin:miter;stroke:rgb(0%,0%,0%);stroke-opacity:1;stroke-miterlimit:10;" d="M 747.032166 213.203369 L 777.344666 230.703369 " transform="matrix(1,0,0,1,-682.911072,-104.703369)"/>
<path style="fill:none;stroke-width:1;stroke-linecap:butt;stroke-linejoin:miter;stroke:rgb(0%,0%,0%);stroke-opacity:1;stroke-miterlimit:10;" d="M 1050.141541 178.203369 L 1080.454041 160.703369 " transform="matrix(1,0,0,1,-682.911072,-104.703369)"/>
<path style="fill:none;stroke-width:1;stroke-linecap:butt;stroke-linejoin:miter;stroke:rgb(0%,0%,0%);stroke-opacity:1;stroke-miterlimit:10;" d="M 686.411072 178.203369 L 716.723572 160.703369 " transform="matrix(1,0,0,1,-682.911072,-104.703369)"/>
<path style="fill:none;stroke-width:1;stroke-linecap:butt;stroke-linejoin:miter;stroke:rgb(0%,0%,0%);stroke-opacity:1;stroke-miterlimit:10;" d="M 1110.762634 178.203369 L 1110.762634 213.203369 " transform="matrix(1,0,0,1,-682.911072,-104.703369)"/>
<path style="fill:none;stroke-width:1;stroke-linecap:butt;stroke-linejoin:miter;stroke:rgb(0%,0%,0%);stroke-opacity:1;stroke-miterlimit:10;" d="M 989.520447 178.203369 L 1019.829041 160.703369 " transform="matrix(1,0,0,1,-682.911072,-104.703369)"/>
<path style="fill:none;stroke-width:1;stroke-linecap:butt;stroke-linejoin:miter;stroke:rgb(0%,0%,0%);stroke-opacity:1;stroke-miterlimit:10;" d="M 959.207947 160.703369 L 959.207947 125.703369 " transform="matrix(1,0,0,1,-682.911072,-104.703369)"/>
<path style="fill:none;stroke-width:1;stroke-linecap:butt;stroke-linejoin:miter;stroke:rgb(0%,0%,0%);stroke-opacity:1;stroke-miterlimit:10;" d="M 928.899353 178.203369 L 959.207947 160.703369 " transform="matrix(1,0,0,1,-682.911072,-104.703369)"/>
<path style="fill:none;stroke-width:1;stroke-linecap:butt;stroke-linejoin:miter;stroke:rgb(0%,0%,0%);stroke-opacity:1;stroke-miterlimit:10;" d="M 1232.008728 178.203369 L 1232.008728 213.203369 " transform="matrix(1,0,0,1,-682.911072,-104.703369)"/>
<path style="fill:none;stroke-width:1;stroke-linecap:butt;stroke-linejoin:miter;stroke:rgb(0%,0%,0%);stroke-opacity:1;stroke-miterlimit:10;" d="M 837.965759 160.703369 L 837.965759 125.703369 " transform="matrix(1,0,0,1,-682.911072,-104.703369)"/>
<path style="fill:none;stroke-width:1;stroke-linecap:butt;stroke-linejoin:miter;stroke:rgb(0%,0%,0%);stroke-opacity:1;stroke-miterlimit:10;" d="M 807.653259 178.203369 L 837.965759 160.703369 " transform="matrix(1,0,0,1,-682.911072,-104.703369)"/>
<path style="fill:none;stroke-width:1;stroke-linecap:butt;stroke-linejoin:miter;stroke:rgb(0%,0%,0%);stroke-opacity:1;stroke-miterlimit:10;" d="M 686.411072 213.203369 L 686.411072 178.203369 " transform="matrix(1,0,0,1,-682.911072,-104.703369)"/>
</g>
</svg>
